<svg width="14" height="15" viewBox="0 0 14 15" fill="none" xmlns="http://www.w3.org/2000/svg">
<path d="M6.41797 10.416H7.58464V6.91602H6.41797V10.416ZM7.0013 5.74935C7.16658 5.74935 7.30522 5.69335 7.41722 5.58135C7.52922 5.46935 7.58502 5.3309 7.58464 5.16602C7.58425 5.00113 7.52825 4.86268 7.41664 4.75068C7.30502 4.63868 7.16658 4.58268 7.0013 4.58268C6.83602 4.58268 6.69758 4.63868 6.58597 4.75068C6.47436 4.86268 6.41836 5.00113 6.41797 5.16602C6.41758 5.3309 6.47358 5.46954 6.58597 5.58193C6.69836 5.69432 6.8368 5.75013 7.0013 5.74935ZM7.0013 13.3327C6.19436 13.3327 5.43603 13.1795 4.7263 12.873C4.01658 12.5666 3.39922 12.151 2.87422 11.6264C2.34922 11.1018 1.93369 10.4845 1.62764 9.77435C1.32158 9.06424 1.16836 8.3059 1.16797 7.49935C1.16758 6.69279 1.3208 5.93446 1.62764 5.22435C1.93447 4.51424 2.35 3.89688 2.87422 3.37227C3.39844 2.84765 4.0158 2.43213 4.7263 2.12568C5.4368 1.81924 6.19514 1.66602 7.0013 1.66602C7.80747 1.66602 8.5658 1.81924 9.2763 2.12568C9.9868 2.43213 10.6042 2.84765 11.1284 3.37227C11.6526 3.89688 12.0683 4.51424 12.3756 5.22435C12.6828 5.93446 12.8358 6.69279 12.8346 7.49935C12.8335 8.3059 12.6802 9.06424 12.375 9.77435C12.0697 10.4845 11.6542 11.1018 11.1284 11.6264C10.6026 12.151 9.98525 12.5668 9.2763 12.8736C8.56736 13.1804 7.80902 13.3335 7.0013 13.3327ZM7.0013 12.166C8.30408 12.166 9.40755 11.7139 10.3117 10.8098C11.2159 9.9056 11.668 8.80213 11.668 7.49935C11.668 6.19657 11.2159 5.0931 10.3117 4.18893C9.40755 3.28477 8.30408 2.83268 7.0013 2.83268C5.69852 2.83268 4.59505 3.28477 3.69089 4.18893C2.78672 5.0931 2.33464 6.19657 2.33464 7.49935C2.33464 8.80213 2.78672 9.9056 3.69089 10.8098C4.59505 11.7139 5.69852 12.166 7.0013 12.166Z" fill="#929292"/>
</svg>
