<svg width="20" height="20" viewBox="0 0 20 20" fill="none" xmlns="http://www.w3.org/2000/svg">
<path d="M10.0013 5.83268C10.2374 5.83268 10.4355 5.75268 10.5955 5.59268C10.7555 5.43268 10.8352 5.2349 10.8346 4.99935C10.8341 4.76379 10.7541 4.56602 10.5946 4.40602C10.4352 4.24602 10.2374 4.16602 10.0013 4.16602C9.76519 4.16602 9.56741 4.24602 9.40797 4.40602C9.24852 4.56602 9.16852 4.76379 9.16797 4.99935C9.16741 5.2349 9.24741 5.43296 9.40797 5.59352C9.56852 5.75407 9.7663 5.83379 10.0013 5.83268ZM9.16797 12.4993H10.8346V7.49935H9.16797V12.4993ZM1.66797 18.3327V3.33268C1.66797 2.87435 1.8313 2.48213 2.15797 2.15602C2.48464 1.8299 2.87686 1.66657 3.33464 1.66602H16.668C17.1263 1.66602 17.5188 1.82935 17.8455 2.15602C18.1721 2.48268 18.3352 2.8749 18.3346 3.33268V13.3327C18.3346 13.791 18.1716 14.1835 17.8455 14.5102C17.5194 14.8368 17.1269 14.9999 16.668 14.9993H5.0013L1.66797 18.3327ZM4.29297 13.3327H16.668V3.33268H3.33464V14.2702L4.29297 13.3327Z" fill="#4F98CA"/>
</svg>
