<svg width="20" height="20" viewBox="0 0 20 20" fill="none" xmlns="http://www.w3.org/2000/svg">
<path d="M15.9237 12.3244C14.2417 12.307 13.3035 12.4766 11.5185 13.2058L11.172 12.357C13.0634 11.5847 14.1225 11.389 15.9328 11.4078L15.9237 12.3244ZM11.5185 11.3725C13.3035 10.6438 14.2422 10.4738 15.9237 10.4912L15.9328 9.57463C14.1225 9.55584 13.0639 9.75153 11.172 10.5238L11.5185 11.3725ZM15.9237 8.65802C14.2417 8.64061 13.3035 8.81018 11.5185 9.53934L11.172 8.69056C13.0634 7.91832 14.1225 7.72263 15.9328 7.74142L15.9237 8.65802ZM14.7825 6.36514V4.99023H15.6991V6.36514H14.7825ZM13.1784 5.44854V6.82344H14.095V5.44854H13.1784ZM11.5744 7.28174V5.90684H12.491V7.28174H11.5744ZM4.01698 12.3244C5.69895 12.307 6.63709 12.4766 8.42218 13.2058L8.76865 12.357C6.87724 11.5847 5.8181 11.389 4.00781 11.4078L4.01698 12.3244ZM8.42218 11.3725C6.63709 10.6438 5.69895 10.4738 4.01698 10.4912L4.00781 9.57463C5.8181 9.55584 6.87678 9.75153 8.76865 10.5238L8.42218 11.3725ZM4.01698 8.65802C5.69895 8.64061 6.63709 8.81018 8.42218 9.53934L8.76865 8.69056C6.87724 7.91832 5.8181 7.72263 4.00781 7.74142L4.01698 8.65802ZM5.15815 6.36514V4.99023H4.24155V6.36514H5.15815ZM6.76221 5.44854V6.82344H5.8456V5.44854H6.76221ZM8.36626 7.28174V5.90684H7.44966V7.28174H8.36626Z" fill="#4D4D4D"/>
<path fill-rule="evenodd" clip-rule="evenodd" d="M18.2163 4.06674C18.4023 4.10768 18.5922 4.15153 18.7859 4.19827C18.885 4.22228 18.9732 4.27897 19.0361 4.35921C19.0991 4.43945 19.1331 4.53855 19.1329 4.64054V16.3451C19.1329 16.6352 18.8657 16.8515 18.5811 16.7975C15.7336 16.2544 13.8147 16.2163 11.1923 16.6141C11.0773 16.8403 10.9019 17.0302 10.6856 17.1629C10.4693 17.2955 10.2206 17.3657 9.96682 17.3657C9.71309 17.3657 9.46431 17.2955 9.24801 17.1629C9.03172 17.0302 8.85635 16.8403 8.74132 16.6141C6.11938 16.2163 4.19955 16.2544 1.35258 16.7975C1.28569 16.8105 1.21673 16.8087 1.15063 16.7921C1.08453 16.7754 1.02292 16.7444 0.970209 16.7012C0.917496 16.6579 0.874976 16.6036 0.845688 16.5421C0.8164 16.4805 0.801067 16.4133 0.800785 16.3451V4.64099C0.800392 4.53893 0.834421 4.43972 0.897374 4.35939C0.960326 4.27906 1.04852 4.22229 1.14772 4.19827C1.34143 4.15153 1.53132 4.10768 1.71739 4.06674V3.85592C1.71739 3.45033 1.98733 3.07956 2.39751 2.97598C5.21606 2.26745 7.26834 3.01815 9.61897 4.1112C9.73354 4.13472 9.84949 4.15917 9.96682 4.18453C10.0841 4.15917 10.2002 4.13472 10.3151 4.1112C12.6653 3.01815 14.7176 2.26745 17.5361 2.97644C17.7314 3.02614 17.9044 3.13971 18.0276 3.29908C18.1509 3.45845 18.2173 3.65446 18.2163 3.85592V4.06674ZM17.2996 14.6003V3.86188C14.7066 3.21338 12.8619 3.92375 10.4251 5.0718V15.7236L10.4265 15.7246L10.4274 15.725L10.4315 15.7264H10.4329L10.4357 15.7255C12.6855 14.7071 14.6479 14.1292 17.2749 14.6086C17.2786 14.6093 17.2825 14.6092 17.2862 14.6083C17.2899 14.6075 17.2934 14.6058 17.2964 14.6036L17.2996 14.6003ZM9.50714 15.7246L9.50852 15.7236V5.0718C7.07173 3.92421 5.22706 3.21338 2.63399 3.86188V14.6003L2.6372 14.6036C2.64026 14.606 2.64381 14.6077 2.64761 14.6087C2.6514 14.6096 2.65535 14.6098 2.6592 14.6091C5.28527 14.1292 7.24817 14.7071 9.49798 15.725L9.50164 15.7264L9.50714 15.7246Z" fill="#4D4D4D"/>
</svg>
