<svg width="20" height="20" viewBox="0 0 20 20" fill="none" xmlns="http://www.w3.org/2000/svg">
<path d="M8.46177 12.311L8.45427 12.2935C8.3416 12.2627 8.22989 12.2285 8.11927 12.191L8.11094 12.1877C6.95974 11.7938 5.96051 11.0498 5.25312 10.0599C4.54574 9.0699 4.1656 7.88354 4.16594 6.66682C4.16557 5.17358 4.73786 3.73705 5.76493 2.65312C6.792 1.5692 8.19564 0.920418 9.68674 0.840416C11.1778 0.760414 12.6428 1.25528 13.78 2.22309C14.9172 3.1909 15.6399 4.55794 15.7993 6.04265C15.8359 6.38599 15.5526 6.66682 15.2076 6.66682C14.8626 6.66682 14.5868 6.38515 14.5409 6.04349C14.4301 5.23705 14.1065 4.47466 13.6035 3.83469C13.1004 3.19472 12.436 2.70025 11.6785 2.40209C10.9211 2.10394 10.0979 2.01285 9.29358 2.1382C8.48926 2.26354 7.73283 2.6008 7.10202 3.11531C6.47122 3.62982 5.98879 4.30301 5.70432 5.06572C5.41986 5.82842 5.34361 6.65311 5.48342 7.45504C5.62323 8.25696 5.97406 9.0072 6.49984 9.62864C7.02563 10.2501 7.7074 10.7203 8.4751 10.991C8.62975 10.6414 8.89986 10.3556 9.24015 10.1815C9.58045 10.0074 9.97024 9.95561 10.3442 10.0347C10.7182 10.1138 11.0536 10.3191 11.2942 10.6161C11.5349 10.9131 11.6661 11.2837 11.6659 11.666C11.6663 12.0512 11.5333 12.4247 11.2894 12.7229C11.0455 13.021 10.7058 13.2255 10.3282 13.3016C9.95053 13.3776 9.55821 13.3204 9.21794 13.1398C8.87767 12.9592 8.61046 12.6664 8.46177 12.311ZM7.6076 13.336C6.62505 12.9831 5.73265 12.4174 4.99427 11.6793C4.53772 11.7324 4.11658 11.9514 3.81086 12.2946C3.50514 12.6378 3.33613 13.0814 3.33594 13.541V14.3077C3.33594 14.7843 3.48427 15.2493 3.76094 15.6377C5.04594 17.441 7.14927 18.3335 9.99927 18.3335C12.8493 18.3335 14.9534 17.4402 16.2409 15.6377C16.5189 15.2489 16.6684 14.783 16.6684 14.3052V13.5402C16.6684 13.0432 16.4711 12.5665 16.1199 12.2149C15.7686 11.8633 15.2921 11.6656 14.7951 11.6652H12.9159C12.9161 12.2859 12.7182 12.8904 12.351 13.3909C11.9839 13.8914 11.4667 14.2617 10.8746 14.448C10.2825 14.6343 9.64637 14.6268 9.05882 14.4266C8.47126 14.2265 7.96288 13.845 7.6076 13.336ZM13.3326 6.66682C13.3326 6.17968 13.2258 5.69846 13.0198 5.25703C12.8138 4.8156 12.5135 4.42469 12.1401 4.11182C11.7935 3.82188 11.3916 3.60544 10.9587 3.47566C10.5259 3.34587 10.0711 3.30546 9.62218 3.35686C9.17322 3.40827 8.73941 3.55042 8.34709 3.77468C7.95478 3.99895 7.61216 4.30064 7.34006 4.66142C7.06796 5.02221 6.87206 5.43455 6.76426 5.87339C6.65646 6.31223 6.63902 6.76841 6.71299 7.21421C6.78696 7.66 6.95081 8.0861 7.19456 8.46661C7.43832 8.84711 7.7569 9.17409 8.13094 9.42765C8.6552 8.99007 9.31638 8.75031 9.99927 8.75015C10.7101 8.75015 11.3618 9.00432 11.8684 9.42765C12.3195 9.12216 12.6889 8.71076 12.9441 8.22945C13.1994 7.74815 13.3327 7.21162 13.3326 6.66682Z" fill="#4D4D4D"/>
</svg>
